{
    "asset" : {
        "generator" : "Khronos glTF Blender I/O v1.8.19",
        "version" : "2.0"
    },
    "scene" : 0,
    "scenes" : [
        {
            "name" : "Scene",
            "nodes" : [
                0
            ]
        }
    ],
    "nodes" : [
        {
            "mesh" : 0,
            "name" : "Plane",
            "rotation" : [
                -0.11885999143123627,
                0.9131518006324768,
                -0.10439615696668625,
                0.3756694793701172
            ],
            "translation" : [
                -1.6652426719665527,
                12.651671409606934,
                8.862776756286621
            ]
        }
    ],
    "animations" : [
        {
            "channels" : [
                {
                    "sampler" : 0,
                    "target" : {
                        "node" : 0,
                        "path" : "translation"
                    }
                },
                {
                    "sampler" : 1,
                    "target" : {
                        "node" : 0,
                        "path" : "rotation"
                    }
                },
                {
                    "sampler" : 2,
                    "target" : {
                        "node" : 0,
                        "path" : "scale"
                    }
                }
            ],
            "name" : "flight",
            "samplers" : [
                {
                    "input" : 4,
                    "interpolation" : "LINEAR",
                    "output" : 5
                },
                {
                    "input" : 4,
                    "interpolation" : "LINEAR",
                    "output" : 6
                },
                {
                    "input" : 7,
                    "interpolation" : "LINEAR",
                    "output" : 8
                }
            ]
        }
    ],
    "meshes" : [
        {
            "name" : "Plane.003",
            "primitives" : [
                {
                    "attributes" : {
                        "POSITION" : 0,
                        "NORMAL" : 1,
                        "TEXCOORD_0" : 2
                    },
                    "indices" : 3
                }
            ]
        }
    ],
    "accessors" : [
        {
            "bufferView" : 0,
            "componentType" : 5126,
            "count" : 145,
            "max" : [
                0.9892556071281433,
                -0.000756092369556427,
                1.259994387626648
            ],
            "min" : [
                -0.9892985820770264,
                -0.1922948658466339,
                -1.000616431236267
            ],
            "type" : "VEC3"
        },
        {
            "bufferView" : 1,
            "componentType" : 5126,
            "count" : 145,
            "type" : "VEC3"
        },
        {
            "bufferView" : 2,
            "componentType" : 5126,
            "count" : 145,
            "type" : "VEC2"
        },
        {
            "bufferView" : 3,
            "componentType" : 5123,
            "count" : 243,
            "type" : "SCALAR"
        },
        {
            "bufferView" : 4,
            "componentType" : 5126,
            "count" : 100,
            "max" : [
                4.166666666666667
            ],
            "min" : [
                0.041666666666666664
            ],
            "type" : "SCALAR"
        },
        {
            "bufferView" : 5,
            "componentType" : 5126,
            "count" : 100,
            "type" : "VEC3"
        },
        {
            "bufferView" : 6,
            "componentType" : 5126,
            "count" : 100,
            "type" : "VEC4"
        },
        {
            "bufferView" : 7,
            "componentType" : 5126,
            "count" : 2,
            "max" : [
                4.166666666666667
            ],
            "min" : [
                0.041666666666666664
            ],
            "type" : "SCALAR"
        },
        {
            "bufferView" : 8,
            "componentType" : 5126,
            "count" : 2,
            "type" : "VEC3"
        }
    ],
    "bufferViews" : [
        {
            "buffer" : 0,
            "byteLength" : 1740,
            "byteOffset" : 0
        },
        {
            "buffer" : 0,
            "byteLength" : 1740,
            "byteOffset" : 1740
        },
        {
            "buffer" : 0,
            "byteLength" : 1160,
            "byteOffset" : 3480
        },
        {
            "buffer" : 0,
            "byteLength" : 486,
            "byteOffset" : 4640
        },
        {
            "buffer" : 0,
            "byteLength" : 400,
            "byteOffset" : 5128
        },
        {
            "buffer" : 0,
            "byteLength" : 1200,
            "byteOffset" : 5528
        },
        {
            "buffer" : 0,
            "byteLength" : 1600,
            "byteOffset" : 6728
        },
        {
            "buffer" : 0,
            "byteLength" : 8,
            "byteOffset" : 8328
        },
        {
            "buffer" : 0,
            "byteLength" : 24,
            "byteOffset" : 8336
        }
    ],
    "buffers" : [
        {
            "byteLength" : 8360,
            "uri" : "data:application/octet-stream;base64,"
        }
    ]
}
