<svg xmlns="http://www.w3.org/2000/svg" viewBox="0 0 867.43 352.89">
  <defs>
    <style>
      .cls-1 {
        fill: none;
        stroke: #1d1d1b;
        stroke-miterlimit: 10;
        stroke-width: 2px;
      }
    </style>
  </defs>
  <g id="Warstwa_2" data-name="Warstwa 2">
    <g id="Warstwa_1-2" data-name="Warstwa 1">
      <path class="cls-1"
        d="M850.37,103.05q-12.72-6.69-29.46-6.7H561.13q-60.93,0-60.93,60.93V218.2q0,60.94-60.92,60.94h-15.4q-17.42,0-29.46,6.69-16.07,8.7-16.07,24.1t16.07,23.44q12.7,6.7,29.46,6.69H683.66q60.92,0,60.92-60.92V218.2q0-60.91,60.93-60.92h15.4q17.4,0,29.46-6.69,16.07-8.7,16.06-24.1T850.37,103.05ZM643.64,239.46c-17,17-21.25,57.83-21.25,57.83s-4.23-40.82-21.25-57.83-57.83-21.25-57.83-21.25S584.13,214,601.14,197s21.25-57.83,21.25-57.83S626.63,180,643.64,197s57.83,21.25,57.83,21.25S660.65,222.44,643.64,239.46Z" />
      <text />
      <path class="cls-1"
        d="M516.53,202.53a113.73,113.73,0,0,0-28.53-19q-25.39-12-59.84-14.47-60.93-4.67-60.93-60.92,0-17.41-6.69-30.13-8.71-16.06-24.11-16.07-27.46,0-30.12,46.2-3.37,60.93-60.94,60.92H122.85q-60.93,0-60.92-60.92V47.2a66.69,66.69,0,0,0-6.7-30.13Q47.21,1,31.8,1,1,1,1,47.2V290.91q0,58.92,60.93,60.92,58.91,2,60.92-60.92,2-60.92,60.93-60.93H367.23q41.5,0,53.56,31.47,2.2,8.83,4.36,17.68,5,20.63,9.7,41.24a45.7,45.7,0,0,0,13.91,19.68q14.53,11.79,40.32,11.78t40.81-11.78q19-15,20.12-49.14Q551.35,234.66,516.53,202.53Z" />
    </g>
  </g>
</svg>